<mxfile host="app.diagrams.net" agent="Mozilla/5.0 (Macintosh; Intel Mac OS X 10_15_7) AppleWebKit/537.36 (KHTML, like Gecko) Chrome/132.0.0.0 Safari/537.36" version="26.0.10">
  <diagram id="TTPwnZrUPGOXwcpMM5Dz" name="Seite-1">
    <mxGraphModel dx="518" dy="917" grid="1" gridSize="10" guides="1" tooltips="1" connect="1" arrows="1" fold="1" page="1" pageScale="1" pageWidth="850" pageHeight="1100" math="0" shadow="0">
      <root>
        <mxCell id="0" />
        <mxCell id="1" parent="0" />
        <mxCell id="kWjeFzFSbygRlTobk0rg-30" value="HTTP Transport" style="rounded=1;whiteSpace=wrap;html=1;align=center;verticalAlign=top;fontSize=30;spacingTop=10;fillColor=#f5f5f5;fontColor=#333333;strokeColor=#666666;" vertex="1" parent="1">
          <mxGeometry x="980" y="90" width="520" height="670" as="geometry" />
        </mxCell>
        <mxCell id="kWjeFzFSbygRlTobk0rg-31" value="Media Type" style="rounded=1;whiteSpace=wrap;html=1;align=center;verticalAlign=top;fontSize=30;spacingTop=10;fillColor=#dae8fc;strokeColor=#6c8ebf;" vertex="1" parent="1">
          <mxGeometry x="990" y="160" width="500" height="580" as="geometry" />
        </mxCell>
        <mxCell id="kWjeFzFSbygRlTobk0rg-32" value="Encapsulation" style="rounded=1;whiteSpace=wrap;html=1;align=center;verticalAlign=top;fontSize=30;spacingTop=10;fillColor=#dae8fc;strokeColor=#6c8ebf;dashed=1;dashPattern=8 8;" vertex="1" parent="1">
          <mxGeometry x="1005" y="230" width="475" height="490" as="geometry" />
        </mxCell>
        <mxCell id="kWjeFzFSbygRlTobk0rg-33" value="Data Structure" style="rounded=1;whiteSpace=wrap;html=1;align=center;verticalAlign=top;fontSize=30;spacingTop=10;fillColor=#dae8fc;strokeColor=#6c8ebf;dashed=1;dashPattern=8 8;" vertex="1" parent="1">
          <mxGeometry x="1015" y="300" width="455" height="400" as="geometry" />
        </mxCell>
        <mxCell id="kWjeFzFSbygRlTobk0rg-35" value="Resource Type" style="rounded=1;whiteSpace=wrap;html=1;align=center;verticalAlign=top;fontSize=30;spacingTop=10;fillColor=#d5e8d4;strokeColor=#82b366;" vertex="1" parent="1">
          <mxGeometry x="1086" y="390" width="345" height="290" as="geometry" />
        </mxCell>
        <mxCell id="kWjeFzFSbygRlTobk0rg-34" value="Resource Type" style="rounded=1;whiteSpace=wrap;html=1;align=center;verticalAlign=top;fontSize=30;spacingTop=10;fillColor=#d5e8d4;strokeColor=#82b366;" vertex="1" parent="1">
          <mxGeometry x="1070" y="380" width="345" height="290" as="geometry" />
        </mxCell>
        <mxCell id="kWjeFzFSbygRlTobk0rg-36" value="Resource Type" style="rounded=1;whiteSpace=wrap;html=1;align=center;verticalAlign=top;fontSize=30;spacingTop=10;fillColor=#d5e8d4;strokeColor=#82b366;" vertex="1" parent="1">
          <mxGeometry x="1050" y="370" width="345" height="290" as="geometry" />
        </mxCell>
        <mxCell id="kWjeFzFSbygRlTobk0rg-46" style="edgeStyle=orthogonalEdgeStyle;rounded=0;orthogonalLoop=1;jettySize=auto;html=1;exitX=1;exitY=0.5;exitDx=0;exitDy=0;entryX=0;entryY=0.5;entryDx=0;entryDy=0;strokeColor=default;strokeWidth=6;align=center;verticalAlign=middle;fontFamily=Helvetica;fontSize=11;fontColor=default;labelBackgroundColor=default;endArrow=classic;" edge="1" parent="1" source="kWjeFzFSbygRlTobk0rg-37" target="kWjeFzFSbygRlTobk0rg-38">
          <mxGeometry relative="1" as="geometry" />
        </mxCell>
        <mxCell id="kWjeFzFSbygRlTobk0rg-37" value="Data Elements" style="rounded=1;whiteSpace=wrap;html=1;fontSize=27;fillColor=#d5e8d4;strokeColor=#82b366;" vertex="1" parent="1">
          <mxGeometry x="1060" y="440" width="140" height="100" as="geometry" />
        </mxCell>
        <mxCell id="kWjeFzFSbygRlTobk0rg-43" style="edgeStyle=orthogonalEdgeStyle;rounded=0;orthogonalLoop=1;jettySize=auto;html=1;exitX=1;exitY=0.5;exitDx=0;exitDy=0;entryX=1;entryY=0.25;entryDx=0;entryDy=0;strokeWidth=6;" edge="1" parent="1" source="kWjeFzFSbygRlTobk0rg-38" target="kWjeFzFSbygRlTobk0rg-33">
          <mxGeometry relative="1" as="geometry">
            <Array as="points">
              <mxPoint x="1540" y="490" />
              <mxPoint x="1540" y="400" />
            </Array>
          </mxGeometry>
        </mxCell>
        <mxCell id="kWjeFzFSbygRlTobk0rg-38" value="Mapping" style="rounded=1;whiteSpace=wrap;html=1;fontSize=27;fillColor=#d5e8d4;strokeColor=#82b366;" vertex="1" parent="1">
          <mxGeometry x="1240" y="440" width="140" height="100" as="geometry" />
        </mxCell>
        <mxCell id="kWjeFzFSbygRlTobk0rg-48" value="Operations" style="rounded=1;whiteSpace=wrap;html=1;fontSize=27;fillColor=#d5e8d4;strokeColor=#82b366;" vertex="1" parent="1">
          <mxGeometry x="1160" y="550" width="140" height="100" as="geometry" />
        </mxCell>
      </root>
    </mxGraphModel>
  </diagram>
</mxfile>
